<svg width="24" height="24" viewBox="0 0 24 24" fill="none" xmlns="http://www.w3.org/2000/svg">
  <path d="M18.667 8.89805C18.5338 8.76423 18.3544 8.68741 18.1666 8.68741H5.08325C4.78684 8.68741 4.64004 9.03542 4.8594 9.25489L5.33325 9.72942C5.46644 9.86324 5.64585 9.94006 5.8336 9.94006H18.9171C19.2134 9.94006 19.3602 9.59205 19.1409 9.37258L18.667 8.89805Z" fill="#9945FF"/>
  <path d="M5.33325 14.0564C5.46644 13.9226 5.64585 13.8458 5.8336 13.8458H18.9171C19.2134 13.8458 19.3602 14.1938 19.1409 14.4133L18.667 14.8878C18.5338 15.0216 18.3544 15.0984 18.1666 15.0984H5.08325C4.78684 15.0984 4.64004 14.7504 4.8594 14.5309L5.33325 14.0564Z" fill="#9945FF"/>
  <path d="M5.33325 17.9846C5.46644 17.8508 5.64585 17.7739 5.8336 17.7739H18.9171C19.2134 17.7739 19.3602 18.122 19.1409 18.3414L18.667 18.816C18.5338 18.9498 18.3544 19.0266 18.1666 19.0266H5.08325C4.78684 19.0266 4.64004 18.6786 4.8594 18.4591L5.33325 17.9846Z" fill="#9945FF"/>
  <path d="M5.33325 5.18413C5.46644 5.05031 5.64585 4.97349 5.8336 4.97349H18.9171C19.2134 4.97349 19.3602 5.3215 19.1409 5.54097L18.667 6.0155C18.5338 6.14932 18.3544 6.22614 18.1666 6.22614H5.08325C4.78684 6.22614 4.64004 5.87813 4.8594 5.65866L5.33325 5.18413Z" fill="#9945FF"/>
</svg>