<svg width="24" height="24" viewBox="0 0 24 24" fill="none" xmlns="http://www.w3.org/2000/svg">
  <circle cx="12" cy="12" r="10" fill="#2775CA"/>
  <path d="M15.94 14.3933C15.5967 15.0533 15.04 15.5667 14.3133 15.8467C13.8533 16.0333 13.34 16.1333 12.7467 16.1333C12.1533 16.1333 11.64 16.0333 11.18 15.8467C10.4533 15.5667 9.89665 15.0533 9.55334 14.3933C9.29334 13.8667 9.16 13.26 9.16 12.6C9.16 11.94 9.29334 11.3333 9.55334 10.8067C9.89665 10.1467 10.4533 9.63333 11.18 9.35333C11.64 9.16667 12.1533 9.06666 12.7467 9.06666C13.34 9.06666 13.8533 9.16667 14.3133 9.35333C15.04 9.63333 15.5967 10.1467 15.94 10.8067C16.2 11.3333 16.3333 11.94 16.3333 12.6C16.3333 13.26 16.2 13.8667 15.94 14.3933ZM12 7C9.24001 7 7 9.24001 7 12C7 14.76 9.24001 17 12 17C14.76 17 17 14.76 17 12C17 9.24001 14.76 7 12 7ZM12.7467 13.58V14.3333C12.7467 14.4733 12.6333 14.5867 12.4933 14.5867H12.0067C11.8667 14.5867 11.7533 14.4733 11.7533 14.3333V13.5933C11.4133 13.5733 11.0733 13.5133 10.7533 13.42C10.5733 13.3667 10.4733 13.18 10.52 13L10.5933 12.6333C10.6267 12.5067 10.7467 12.42 10.8733 12.42C10.9067 12.42 10.94 12.4267 10.9733 12.44C11.2333 12.5333 11.5067 12.6 11.7533 12.6267V11.2267C11 11.06 10.2533 10.7667 10.2533 9.93334C10.2533 9.16001 10.86 8.62001 11.7533 8.54668V7.8C11.7533 7.66001 11.8667 7.54668 12.0067 7.54668H12.4933C12.6333 7.54668 12.7467 7.66001 12.7467 7.8V8.53334C13.0533 8.54668 13.34 8.6 13.62 8.68001C13.8 8.73334 13.9 8.93334 13.8467 9.11334L13.7667 9.46667C13.7267 9.63334 13.58 9.74001 13.4067 9.68668C13.3733 9.68001 13.3467 9.67334 13.3133 9.66001C13.1267 9.6 12.94 9.56001 12.7467 9.54668V10.9333C13.5067 11.1067 14.28 11.4067 14.28 12.2667C14.28 13.1067 13.6467 13.5 12.7467 13.58ZM11.3267 9.76667C11.3267 10.0067 11.5 10.14 11.7533 10.22V9.34001C11.5 9.37334 11.3267 9.52668 11.3267 9.76667ZM13.2 12.44C13.2 12.2 13.0133 12.06 12.7467 11.98V12.8733C13.0133 12.84 13.2 12.68 13.2 12.44Z" fill="white"/>
</svg>